<!-- Generator: Adobe Illustrator 20.1.0, SVG Export Plug-In  -->
<svg version="1.1"
	 xmlns="http://www.w3.org/2000/svg" xmlns:xlink="http://www.w3.org/1999/xlink" xmlns:a="http://ns.adobe.com/AdobeSVGViewerExtensions/3.0/"
	 x="0px" y="0px" width="246.167px" height="80.188px" viewBox="0 0 246.167 80.188"
	 style="enable-background:new 0 0 246.167 80.188;" xml:space="preserve">
<style type="text/css">
	.st0{clip-path:url(#XMLID_3_);fill:#9C1006;}
	.st1{fill:#FFFFFF;}
	.st2{clip-path:url(#XMLID_4_);fill:#9C1006;}
</style>
<defs>
</defs>
<g>
	<path d="M93.684,39.675l-4.241,10.89c-0.085,0.199-0.206,0.383-0.362,0.554c-0.341,0.327-0.746,0.49-1.215,0.49
		c-0.469,0-0.871-0.167-1.204-0.5c-0.334-0.334-0.501-0.735-0.501-1.204c0-0.269,0.05-0.511,0.149-0.724l11.849-30.475
		c0.085-0.256,0.234-0.49,0.448-0.703c0.327-0.327,0.724-0.49,1.193-0.49c0.469,0,0.874,0.164,1.215,0.49
		c0.199,0.213,0.341,0.448,0.426,0.703l11.849,30.475c0.099,0.213,0.149,0.455,0.149,0.724c0,0.469-0.167,0.871-0.5,1.204
		c-0.334,0.334-0.736,0.5-1.204,0.5c-0.468,0-0.866-0.163-1.193-0.49c-0.17-0.171-0.298-0.355-0.384-0.554l-4.241-10.89H93.684z
		 M104.596,36.265L99.8,23.926l-4.795,12.339H104.596z"/>
	<path d="M121.214,19.216c0-0.469,0.167-0.87,0.501-1.204c0.334-0.334,0.735-0.501,1.204-0.501s0.87,0.167,1.204,0.501
		c0.334,0.334,0.501,0.735,0.501,1.204v28.983h17.049c0.469,0,0.87,0.167,1.204,0.501c0.334,0.334,0.501,0.735,0.501,1.204
		c0,0.469-0.167,0.871-0.501,1.204c-0.334,0.334-0.735,0.5-1.204,0.5h-18.754c-0.469,0-0.871-0.167-1.204-0.5
		c-0.334-0.334-0.501-0.735-0.501-1.204V19.216z"/>
	<path d="M146.123,20.921c-0.469,0-0.871-0.167-1.204-0.501c-0.334-0.334-0.501-0.735-0.501-1.204s0.167-0.87,0.501-1.204
		c0.334-0.334,0.735-0.501,1.204-0.501h22.164c0.468,0,0.87,0.167,1.204,0.501c0.334,0.334,0.5,0.735,0.5,1.204
		s-0.167,0.871-0.5,1.204c-0.334,0.334-0.736,0.501-1.204,0.501h-9.377v28.983c0,0.469-0.167,0.871-0.501,1.204
		c-0.334,0.334-0.735,0.5-1.204,0.5s-0.871-0.167-1.204-0.5c-0.334-0.334-0.501-0.735-0.501-1.204V20.921H146.123z"/>
	<path d="M179.471,17.511h6.819c2.358,0,4.368,0.831,6.031,2.493s2.494,3.673,2.494,6.031c0,2.359-0.832,4.369-2.494,6.031
		c1.052,0.498,2.025,1.186,2.921,2.067c1.989,2.003,2.983,4.419,2.983,7.246s-0.998,5.239-2.995,7.235
		c-1.995,1.996-4.408,2.994-7.235,2.994h-8.524c-0.469,0-0.871-0.167-1.204-0.5c-0.334-0.334-0.501-0.735-0.501-1.204V19.216
		c0-0.469,0.167-0.87,0.501-1.204C178.601,17.678,179.003,17.511,179.471,17.511z M181.176,20.921v10.229h5.114
		c1.406,0,2.611-0.501,3.612-1.502c1.003-1.002,1.503-2.206,1.503-3.613c0-1.406-0.5-2.61-1.503-3.612
		c-1.001-1.001-2.205-1.502-3.612-1.502H181.176z M181.176,34.561v13.639h6.819c1.889,0,3.499-0.664,4.828-1.992
		c1.328-1.328,1.992-2.937,1.992-4.827s-0.665-3.499-1.992-4.827c-1.329-1.328-2.939-1.993-4.828-1.993H181.176z"/>
	<path d="M207.705,19.216c0-0.469,0.167-0.87,0.5-1.204s0.735-0.501,1.204-0.501c0.468,0,0.87,0.167,1.204,0.501
		c0.334,0.334,0.501,0.735,0.501,1.204v30.688c0,0.469-0.167,0.871-0.501,1.204c-0.334,0.334-0.735,0.5-1.204,0.5
		c-0.469,0-0.871-0.167-1.204-0.5s-0.5-0.735-0.5-1.204V19.216z"/>
	<path d="M222.298,20.921c-0.469,0-0.871-0.167-1.204-0.501c-0.334-0.334-0.5-0.735-0.5-1.204s0.167-0.87,0.5-1.204
		s0.735-0.501,1.204-0.501h22.164c0.469,0,0.871,0.167,1.204,0.501c0.333,0.334,0.501,0.735,0.501,1.204s-0.167,0.871-0.501,1.204
		c-0.334,0.334-0.735,0.501-1.204,0.501h-9.376v28.983c0,0.469-0.167,0.871-0.501,1.204s-0.735,0.5-1.204,0.5
		c-0.469,0-0.871-0.167-1.204-0.5s-0.5-0.735-0.5-1.204V20.921H222.298z"/>
</g>
<g>
	<g>
		<defs>
			<circle id="XMLID_1_" cx="34.559" cy="34.56" r="34.56"/>
		</defs>
		<use xlink:href="#XMLID_1_"  style="overflow:visible;fill:#BE1622;"/>
		<clipPath id="XMLID_3_">
			<use xlink:href="#XMLID_1_"  style="overflow:visible;"/>
		</clipPath>
		<path class="st0" d="M51.111,13.648c-2.585-0.473-5.082-1.195-7.702-2.095c-2.97-1.019-6.747-2.126-9.646-1.592
			c-7.016,1.293-13.514,4.54-18.527,9.716c-6.717,6.933-6.237,19.934-1.86,28.727c1.487,1.389,2.548,3.151,3.149,5.088
			l27.589,26.696l36.636-37.86L51.111,13.648z"/>
	</g>
	<path class="st1" d="M50.324,51.074c-3.89,0-6.071-1.75-6.545-5.252c-2.705,2.182-5.774,3.273-9.207,3.273
		c-4.008,0-7.432-1.422-10.273-4.262c-2.841-2.842-4.262-6.266-4.262-10.273c0-4.008,1.421-7.433,4.262-10.273
		c2.842-2.841,6.266-4.262,10.273-4.262s7.424,1.421,10.248,4.262c2.857,2.841,4.286,6.266,4.286,10.273v9.867
		c0,0.812,0.405,1.217,1.218,1.217c3.449,0,5.174-3.693,5.174-11.083c0-2.96-0.512-5.657-1.534-8.092
		c-1.022-2.436-2.558-4.668-4.604-6.696c-2.063-2.046-4.312-3.585-6.747-4.617c-2.436-1.031-5.115-1.547-8.041-1.547
		c-5.801,0-10.747,2.055-14.839,6.164c-4.075,4.058-6.113,8.987-6.113,14.788c0,5.8,2.038,10.73,6.113,14.789
		c4.092,4.107,9.038,6.162,14.839,6.162c3.077,0,5.952-0.592,8.624-1.775c0.405-0.236,0.829-0.354,1.269-0.354
		c0.761,0,1.398,0.266,1.915,0.799c0.516,0.531,0.773,1.18,0.773,1.94c0,0.559-0.165,1.078-0.495,1.56
		c-0.329,0.482-0.739,0.799-1.229,0.951c-3.349,1.521-6.968,2.283-10.856,2.283c-7.271,0-13.486-2.58-18.645-7.736
		c-5.141-5.158-7.711-11.365-7.711-18.619c0-7.238,2.57-13.444,7.711-18.619c5.158-5.157,11.373-7.736,18.645-7.736
		c7.237,0,13.436,2.579,18.593,7.736c5.157,5.175,7.736,11.381,7.736,18.619C60.901,45.568,57.375,51.074,50.324,51.074z
		 M34.572,25.479c-1.252,0-2.436,0.236-3.551,0.71c-1.117,0.474-2.085,1.116-2.904,1.928c-0.821,0.811-1.472,1.775-1.953,2.892
		c-0.483,1.116-0.724,2.3-0.724,3.552c0,1.251,0.241,2.435,0.724,3.55c0.481,1.117,1.132,2.08,1.953,2.893
		c0.819,0.811,1.787,1.455,2.904,1.928c1.115,0.473,2.299,0.709,3.551,0.709c1.251,0,2.436-0.24,3.551-0.723
		c1.116-0.48,2.08-1.137,2.892-1.965c0.811-0.828,1.453-1.793,1.928-2.893c0.473-1.098,0.709-2.265,0.709-3.5
		c0-1.234-0.236-2.401-0.709-3.501c-0.475-1.099-1.117-2.062-1.928-2.892c-0.812-0.828-1.776-1.483-2.892-1.966
		C37.008,25.72,35.823,25.479,34.572,25.479z"/>
</g>
</svg>